# xmcd
# Track frame offsets:
# 150
# 22003
# 36601
# 55445
# 74082
# 88174
# 102538
# 124433
# 140905
# 155408
# 175581
# 190822
#
# Disc length: 2819 seconds
# Revision: 0
# Processed by: cddbd v1.4PL0 Copyright (c) Steve Scherf et al.
# Submitted via: VisiTrax 2.9.5.181 - For more info visit www.synapsa.com
#
DISCID=bf0b010c
DTITLE=Ovans, Tom - The Beat Trade
DYEAR=1999
DGENRE=
TTITLE0=The Monkeys Have Landed
TTITLE1=What About You
TTITLE2=Going Someplace
TTITLE3=Hey Woody Guthrie
TTITLE4=Salvation
TTITLE5=Tell Me Babe
TTITLE6=Rebel Roadside
TTITLE7=Just To Be With You
TTITLE8=Can't Blame Her None
TTITLE9=Bozo World
TTITLE10=There Are Times
TTITLE11=Where The Moon Shines Bright
EXTD=
EXTT0=
EXTT1=
EXTT2=
EXTT3=
EXTT4=
EXTT5=
EXTT6=
EXTT7=
EXTT8=
EXTT9=
EXTT10=
EXTT11=
PLAYORDER=
